<?xml version="1.0" encoding="utf-8"?>
<!-- Generator: Adobe Illustrator 25.2.0, SVG Export Plug-In . SVG Version: 6.00 Build 0)  -->
<svg version="1.1" id="Layer_1" xmlns="http://www.w3.org/2000/svg" xmlns:xlink="http://www.w3.org/1999/xlink" x="0px" y="0px"
	 viewBox="0 0 708.66 231.13" style="enable-background:new 0 0 708.66 231.13;" xml:space="preserve">
<style type="text/css">
	.st0{fill:#24346C;}
	.st1{fill:url(#SVGID_1_);}
	.st2{fill:url(#SVGID_2_);}
	.st3{fill:#22205F;}
	.st4{font-family:'Montserrat-Regular';}
	.st5{font-size:29.7989px;}
	.st6{letter-spacing:2;}
</style>
<rect x="196.54" y="143.59" class="st0" width="29.66" height="4.29"/>
<rect x="197.76" y="153.32" class="st0" width="27.23" height="4.29"/>
<linearGradient id="SVGID_1_" gradientUnits="userSpaceOnUse" x1="198.1262" y1="97.6452" x2="249.4334" y2="97.6452">
	<stop  offset="1.385225e-07" style="stop-color:#0F1031"/>
	<stop  offset="1" style="stop-color:#22205F"/>
</linearGradient>
<path class="st1" d="M225.52,54.84l-11.86,39.34h22.05l-37.58,46.26h29.04l0.23-3.94c0-2.32,4.17-7.65,4.17-7.65
	c3.91-4.49,9.21-14.28,12.55-20.94c2.65-4.73,5.32-11.75,5.32-18.93C249.43,73.29,239.47,59.91,225.52,54.84z"/>
<linearGradient id="SVGID_2_" gradientUnits="userSpaceOnUse" x1="175.5593" y1="95.8783" x2="223.5332" y2="95.8783">
	<stop  offset="0.4162" style="stop-color:#85C441"/>
	<stop  offset="1" style="stop-color:#059948"/>
</linearGradient>
<path class="st2" d="M189.41,101.33l34.12-46.75c-3.66-1.24-7.58-1.91-11.66-1.91c-20.06,0-36.32,16.26-36.32,36.32
	c0,7.35,2.35,12.88,5.94,19.91c4.47,8.11,10.64,17.33,10.64,17.33c4.95,6.39,4.59,10.51,4.59,10.51v2.35l13.97-36.83L189.41,101.33z
	"/>
<path class="st3" d="M41.37,128.44c-0.83,0-1.51-0.67-1.51-1.51V62.79c0-0.83,0.67-1.51,1.51-1.51h26.76
	c7.26,0,13.03,1.53,17.15,4.55c4.27,3.13,6.43,7.62,6.43,13.36c0,3.99-1.08,7.41-3.2,10.17c-1.27,1.65-2.82,3.03-4.63,4.12
	c2.96,1.09,5.39,2.69,7.22,4.78c2.65,3.02,3.99,6.96,3.99,11.71c0,5.92-2.21,10.55-6.57,13.76c-4.22,3.11-10.47,4.69-18.58,4.69
	H41.37z M69.96,121.4c5.9,0,10.38-1.01,13.31-2.99c2.79-1.89,4.15-4.76,4.15-8.79c0-4.02-1.35-6.88-4.14-8.74
	c-2.94-1.96-7.42-2.95-13.32-2.95H47.54v23.47H69.96z M67.94,90.88c5.27,0,9.34-1,12.09-2.97c2.63-1.89,3.91-4.62,3.91-8.35
	c0-3.67-1.28-6.37-3.91-8.26c-2.75-1.97-6.82-2.97-12.09-2.97h-20.4v22.56H67.94z"/>
<path class="st3" d="M157.02,128.44c-0.49,0-0.94-0.23-1.23-0.63l-14.78-20.71c-1.97,0.24-3.83,0.36-5.53,0.36h-16.82v19.48
	c0,0.83-0.67,1.51-1.51,1.51h-4.67c-0.83,0-1.51-0.67-1.51-1.51V62.79c0-0.83,0.67-1.51,1.51-1.51h23c8.39,0,15.09,2.04,19.93,6.08
	c4.92,4.1,7.41,9.84,7.41,17.06c0,5.38-1.41,9.99-4.2,13.69c-2.41,3.21-5.75,5.61-9.92,7.17l14.85,20.79
	c0.33,0.46,0.37,1.06,0.11,1.56c-0.26,0.5-0.77,0.82-1.34,0.82H157.02z M135.48,100.32c6.45,0,11.39-1.41,14.7-4.18
	c3.28-2.75,4.87-6.58,4.87-11.72s-1.59-8.97-4.87-11.72c-3.31-2.78-8.26-4.18-14.7-4.18h-16.82v31.81H135.48z"/>
<path class="st3" d="M329.28,128.44c-0.64,0-1.21-0.41-1.42-1.01l-18.47-53.44l-18.55,53.44c-0.21,0.61-0.78,1.01-1.42,1.01h-4.95
	c-0.64,0-1.22-0.41-1.43-1.02l-21.81-64.14c-0.16-0.46-0.08-0.97,0.2-1.36c0.28-0.39,0.74-0.63,1.22-0.63h4.95
	c0.65,0,1.22,0.41,1.43,1.02l18.11,53.57l18.63-53.58c0.21-0.61,0.78-1.01,1.42-1.01h4.49c0.64,0,1.21,0.41,1.42,1.01l18.54,53.68
	l18.29-53.67c0.21-0.61,0.78-1.02,1.42-1.02h4.58c0.49,0,0.94,0.23,1.22,0.63c0.28,0.39,0.36,0.9,0.2,1.36l-21.72,64.14
	c-0.21,0.61-0.78,1.02-1.43,1.02H329.28z"/>
<path class="st3" d="M426.96,128.44c-0.46,0-0.9-0.21-1.18-0.58l-41.02-52.29v51.36c0,0.83-0.67,1.51-1.51,1.51h-4.67
	c-0.83,0-1.51-0.67-1.51-1.51V62.79c0-0.83,0.67-1.51,1.51-1.51h3.94c0.46,0,0.9,0.21,1.19,0.58l40.93,52.28V62.79
	c0-0.83,0.67-1.51,1.51-1.51h4.67c0.83,0,1.51,0.67,1.51,1.51v64.14c0,0.83-0.67,1.51-1.51,1.51H426.96z"/>
<path class="st3" d="M489.55,128.9c-6.52,0-12.51-1.5-17.78-4.45c-5.28-2.96-9.5-7.08-12.52-12.24c-3.03-5.16-4.56-10.99-4.56-17.35
	c0-6.35,1.53-12.19,4.56-17.35c3.02-5.16,7.24-9.28,12.52-12.24c5.27-2.95,11.26-4.45,17.78-4.45c6.52,0,12.5,1.48,17.77,4.4
	c5.29,2.93,9.5,7.03,12.53,12.19c3.03,5.16,4.56,11.03,4.56,17.44s-1.53,12.28-4.56,17.44c-3.03,5.16-7.24,9.26-12.53,12.19
	C502.05,127.41,496.07,128.9,489.55,128.9z M489.55,68.14c-5.09,0-9.76,1.17-13.88,3.47c-4.11,2.3-7.39,5.52-9.74,9.57
	c-2.36,4.05-3.55,8.65-3.55,13.68s1.2,9.62,3.55,13.68c2.36,4.05,5.63,7.27,9.74,9.57c4.12,2.31,8.79,3.47,13.88,3.47
	c5.09,0,9.74-1.17,13.83-3.47c4.08-2.3,7.34-5.52,9.7-9.57c2.36-4.05,3.55-8.66,3.55-13.68c0-5.02-1.2-9.62-3.55-13.68
	c-2.36-4.05-5.62-7.27-9.7-9.57C499.29,69.31,494.63,68.14,489.55,68.14z"/>
<path class="st3" d="M573.39,128.9c-8.52,0-15.25-2.53-20.01-7.52c-4.75-4.97-7.15-12.26-7.15-21.66V62.79
	c0-0.83,0.67-1.51,1.51-1.51h4.67c0.83,0,1.51,0.67,1.51,1.51v36.75c0,7.46,1.68,13.06,5.01,16.66c3.29,3.57,8.19,5.38,14.56,5.38
	c6.31,0,11.18-1.81,14.47-5.38c3.32-3.6,5.01-9.21,5.01-16.67V62.79c0-0.83,0.67-1.51,1.51-1.51h4.67c0.83,0,1.51,0.67,1.51,1.51
	v36.93c0,9.4-2.42,16.69-7.2,21.66C588.65,126.37,581.9,128.9,573.39,128.9z"/>
<path class="st3" d="M641.11,128.44c-0.83,0-1.51-0.67-1.51-1.51V68.51h-21.59c-0.83,0-1.51-0.67-1.51-1.51v-4.22
	c0-0.83,0.67-1.51,1.51-1.51h50.86c0.83,0,1.51,0.67,1.51,1.51V67c0,0.83-0.67,1.51-1.51,1.51h-21.59v58.42
	c0,0.83-0.67,1.51-1.51,1.51H641.11z"/>
<text transform="matrix(1 0 0 1 273.9526 165.8101)" class="st4 st5 st6">keep the future bright</text>
</svg>
